<svg width="1280" height="600" viewBox="0 0 1280 600" fill="none" xmlns="http://www.w3.org/2000/svg">
<rect width="1280" height="600" fill="#979696"/>
<path d="M686.875 243.75H593.125C590.639 243.75 588.254 244.738 586.496 246.496C584.738 248.254 583.75 250.639 583.75 253.125V346.875C583.75 349.361 584.738 351.746 586.496 353.504C588.254 355.262 590.639 356.25 593.125 356.25H686.875C689.361 356.25 691.746 355.262 693.504 353.504C695.262 351.746 696.25 349.361 696.25 346.875V253.125C696.25 250.639 695.262 248.254 693.504 246.496C691.746 244.738 689.361 243.75 686.875 243.75ZM593.125 253.125H686.875V298.465L672.408 283.992C670.65 282.235 668.267 281.248 665.781 281.248C663.296 281.248 660.912 282.235 659.154 283.992L596.271 346.875H593.125V253.125ZM686.875 346.875H609.531L665.781 290.625L686.875 311.719V346.875ZM621.25 295.312C624.031 295.312 626.75 294.488 629.063 292.943C631.375 291.397 633.178 289.201 634.242 286.631C635.306 284.062 635.585 281.234 635.042 278.507C634.5 275.779 633.16 273.273 631.194 271.306C629.227 269.34 626.721 268 623.993 267.458C621.266 266.915 618.438 267.194 615.869 268.258C613.299 269.322 611.103 271.125 609.557 273.437C608.012 275.75 607.188 278.469 607.188 281.25C607.188 284.98 608.669 288.556 611.306 291.194C613.944 293.831 617.52 295.312 621.25 295.312ZM621.25 276.562C622.177 276.562 623.083 276.837 623.854 277.352C624.625 277.868 625.226 278.6 625.581 279.456C625.935 280.313 626.028 281.255 625.847 282.164C625.667 283.074 625.22 283.909 624.565 284.565C623.909 285.22 623.074 285.667 622.164 285.847C621.255 286.028 620.313 285.935 619.456 285.581C618.6 285.226 617.868 284.625 617.352 283.854C616.837 283.083 616.562 282.177 616.562 281.25C616.562 280.007 617.056 278.815 617.935 277.935C618.815 277.056 620.007 276.562 621.25 276.562Z" fill="black"/>
</svg>
