<svg width="80" height="80" viewBox="0 0 80 80" fill="none" xmlns="http://www.w3.org/2000/svg">
<path d="M21.6 29.4219L8.90623 40L21.6 50.5781C21.8595 50.7859 22.075 51.0433 22.2338 51.3353C22.3926 51.6273 22.4916 51.9481 22.525 52.2789C22.5584 52.6096 22.5254 52.9437 22.4281 53.2616C22.3308 53.5794 22.1711 53.8747 21.9583 54.1301C21.7455 54.3855 21.4839 54.5959 21.1888 54.749C20.8937 54.902 20.5711 54.9947 20.2398 55.0216C19.9084 55.0485 19.575 55.009 19.2591 54.9055C18.9432 54.802 18.6512 54.6365 18.4 54.4187L3.39998 41.9187C3.11852 41.6841 2.89208 41.3905 2.73668 41.0587C2.58128 40.7268 2.50073 40.3649 2.50073 39.9984C2.50073 39.632 2.58128 39.2701 2.73668 38.9382C2.89208 38.6064 3.11852 38.3127 3.39998 38.0781L18.4 25.5781C18.9097 25.1538 19.5671 24.9493 20.2276 25.0097C20.8881 25.07 21.4975 25.3903 21.9219 25.9C22.3462 26.4097 22.5507 27.0671 22.4903 27.7276C22.43 28.3881 22.1097 28.9975 21.6 29.4219ZM76.6 38.0781L61.6 25.5781C61.3476 25.368 61.0563 25.2097 60.7427 25.1121C60.4291 25.0146 60.0994 24.9798 59.7724 25.0097C59.4453 25.0395 59.1274 25.1336 58.8367 25.2863C58.546 25.4391 58.2882 25.6476 58.0781 25.9C57.6538 26.4097 57.4493 27.0671 57.5096 27.7276C57.57 28.3881 57.8903 28.9975 58.4 29.4219L71.0937 40L58.4 50.5781C58.1405 50.7859 57.925 51.0433 57.7662 51.3353C57.6073 51.6273 57.5083 51.9481 57.475 52.2789C57.4416 52.6096 57.4745 52.9437 57.5718 53.2616C57.6691 53.5794 57.8289 53.8747 58.0417 54.1301C58.2545 54.3855 58.5161 54.5959 58.8111 54.749C59.1062 54.902 59.4289 54.9947 59.7602 55.0216C60.0916 55.0485 60.4249 55.009 60.7408 54.9055C61.0567 54.802 61.3488 54.6365 61.6 54.4187L76.6 41.9187C76.8814 41.6841 77.1079 41.3905 77.2633 41.0587C77.4187 40.7268 77.4992 40.3649 77.4992 39.9984C77.4992 39.632 77.4187 39.2701 77.2633 38.9382C77.1079 38.6064 76.8814 38.3127 76.6 38.0781ZM50.8531 10.15C50.5445 10.038 50.2168 9.9878 49.8889 10.0024C49.5609 10.017 49.239 10.096 48.9415 10.235C48.6441 10.374 48.3769 10.5702 48.1553 10.8125C47.9337 11.0547 47.762 11.3383 47.65 11.6469L27.65 66.6469C27.5375 66.9557 27.4869 67.2836 27.5013 67.6119C27.5156 67.9403 27.5946 68.2626 27.7336 68.5604C27.8726 68.8582 28.069 69.1256 28.3115 69.3475C28.554 69.5693 28.8379 69.7411 29.1469 69.8531C29.4207 69.9505 29.7093 70.0001 30 70C30.5134 70 31.0144 69.842 31.4348 69.5473C31.8552 69.2527 32.1748 68.8357 32.35 68.3531L52.35 13.3531C52.462 13.0445 52.5122 12.7169 52.4976 12.3889C52.483 12.0609 52.404 11.739 52.265 11.4415C52.126 11.1441 51.9297 10.8769 51.6875 10.6553C51.4452 10.4337 51.1617 10.262 50.8531 10.15Z" fill="black"/>
</svg>
