<svg width="80" height="80" viewBox="0 0 80 80" fill="none" xmlns="http://www.w3.org/2000/svg">
<path d="M68.3844 32.4281L43.3844 8.84062C43.3721 8.82996 43.3607 8.81847 43.35 8.80625C42.4296 7.96916 41.2301 7.50531 39.9859 7.50531C38.7418 7.50531 37.5423 7.96916 36.6219 8.80625L36.5875 8.84062L11.6156 32.4281C11.1062 32.8965 10.6996 33.4656 10.4215 34.0992C10.1434 34.7329 9.99989 35.4174 10 36.1094V65C10 66.3261 10.5268 67.5978 11.4645 68.5355C12.4021 69.4732 13.6739 70 15 70H30C31.3261 70 32.5979 69.4732 33.5355 68.5355C34.4732 67.5978 35 66.3261 35 65V50H45V65C45 66.3261 45.5268 67.5978 46.4645 68.5355C47.4021 69.4732 48.6739 70 50 70H65C66.3261 70 67.5979 69.4732 68.5355 68.5355C69.4732 67.5978 70 66.3261 70 65V36.1094C70.0001 35.4174 69.8566 34.7329 69.5785 34.0992C69.3004 33.4656 68.8938 32.8965 68.3844 32.4281ZM65 65H50V50C50 48.6739 49.4732 47.4021 48.5355 46.4645C47.5979 45.5268 46.3261 45 45 45H35C33.6739 45 32.4021 45.5268 31.4645 46.4645C30.5268 47.4021 30 48.6739 30 50V65H15V36.1094L15.0344 36.0781L40 12.5L64.9687 36.0719L65.0031 36.1031L65 65Z" fill="black"/>
</svg>
