<svg width="1280" height="440" viewBox="0 0 1280 440" fill="none" xmlns="http://www.w3.org/2000/svg">
<rect width="1280" height="440" fill="#D9D9D9"/>
<path d="M677.5 175H602.5C600.511 175 598.603 175.79 597.197 177.197C595.79 178.603 595 180.511 595 182.5V257.5C595 259.489 595.79 261.397 597.197 262.803C598.603 264.21 600.511 265 602.5 265H677.5C679.489 265 681.397 264.21 682.803 262.803C684.21 261.397 685 259.489 685 257.5V182.5C685 180.511 684.21 178.603 682.803 177.197C681.397 175.79 679.489 175 677.5 175ZM602.5 182.5H677.5V218.772L665.927 207.194C664.52 205.788 662.613 204.999 660.625 204.999C658.637 204.999 656.73 205.788 655.323 207.194L605.017 257.5H602.5V182.5ZM677.5 257.5H615.625L660.625 212.5L677.5 229.375V257.5ZM625 216.25C627.225 216.25 629.4 215.59 631.25 214.354C633.1 213.118 634.542 211.361 635.394 209.305C636.245 207.25 636.468 204.988 636.034 202.805C635.6 200.623 634.528 198.618 632.955 197.045C631.382 195.472 629.377 194.4 627.195 193.966C625.012 193.532 622.75 193.755 620.695 194.606C618.639 195.458 616.882 196.9 615.646 198.75C614.41 200.6 613.75 202.775 613.75 205C613.75 207.984 614.935 210.845 617.045 212.955C619.155 215.065 622.016 216.25 625 216.25ZM625 201.25C625.742 201.25 626.467 201.47 627.083 201.882C627.7 202.294 628.181 202.88 628.465 203.565C628.748 204.25 628.823 205.004 628.678 205.732C628.533 206.459 628.176 207.127 627.652 207.652C627.127 208.176 626.459 208.533 625.732 208.678C625.004 208.823 624.25 208.748 623.565 208.465C622.88 208.181 622.294 207.7 621.882 207.083C621.47 206.467 621.25 205.742 621.25 205C621.25 204.005 621.645 203.052 622.348 202.348C623.052 201.645 624.005 201.25 625 201.25Z" fill="black"/>
</svg>
