<svg width="80" height="80" viewBox="0 0 80 80" fill="none" xmlns="http://www.w3.org/2000/svg">
<path d="M14.9999 20C14.9999 19.337 15.2633 18.7011 15.7322 18.2322C16.201 17.7634 16.8369 17.5 17.4999 17.5H22.4999V12.5C22.4999 11.837 22.7633 11.2011 23.2322 10.7322C23.701 10.2634 24.3369 10 24.9999 10C25.663 10 26.2989 10.2634 26.7677 10.7322C27.2365 11.2011 27.4999 11.837 27.4999 12.5V17.5H32.4999C33.163 17.5 33.7989 17.7634 34.2677 18.2322C34.7365 18.7011 34.9999 19.337 34.9999 20C34.9999 20.663 34.7365 21.2989 34.2677 21.7678C33.7989 22.2366 33.163 22.5 32.4999 22.5H27.4999V27.5C27.4999 28.163 27.2365 28.7989 26.7677 29.2678C26.2989 29.7366 25.663 30 24.9999 30C24.3369 30 23.701 29.7366 23.2322 29.2678C22.7633 28.7989 22.4999 28.163 22.4999 27.5V22.5H17.4999C16.8369 22.5 16.201 22.2366 15.7322 21.7678C15.2633 21.2989 14.9999 20.663 14.9999 20ZM57.4999 60H54.9999V57.5C54.9999 56.837 54.7365 56.2011 54.2677 55.7322C53.7989 55.2634 53.163 55 52.4999 55C51.8369 55 51.201 55.2634 50.7322 55.7322C50.2633 56.2011 49.9999 56.837 49.9999 57.5V60H47.4999C46.8369 60 46.201 60.2634 45.7322 60.7322C45.2633 61.2011 44.9999 61.837 44.9999 62.5C44.9999 63.163 45.2633 63.7989 45.7322 64.2678C46.201 64.7366 46.8369 65 47.4999 65H49.9999V67.5C49.9999 68.163 50.2633 68.7989 50.7322 69.2678C51.201 69.7366 51.8369 70 52.4999 70C53.163 70 53.7989 69.7366 54.2677 69.2678C54.7365 68.7989 54.9999 68.163 54.9999 67.5V65H57.4999C58.163 65 58.7989 64.7366 59.2677 64.2678C59.7365 63.7989 59.9999 63.163 59.9999 62.5C59.9999 61.837 59.7365 61.2011 59.2677 60.7322C58.7989 60.2634 58.163 60 57.4999 60ZM74.9999 45H69.9999V40C69.9999 39.337 69.7365 38.7011 69.2677 38.2322C68.7989 37.7634 68.163 37.5 67.4999 37.5C66.8369 37.5 66.201 37.7634 65.7322 38.2322C65.2633 38.7011 64.9999 39.337 64.9999 40V45H59.9999C59.3369 45 58.701 45.2634 58.2322 45.7322C57.7633 46.2011 57.4999 46.837 57.4999 47.5C57.4999 48.163 57.7633 48.7989 58.2322 49.2678C58.701 49.7366 59.3369 50 59.9999 50H64.9999V55C64.9999 55.663 65.2633 56.2989 65.7322 56.7678C66.201 57.2366 66.8369 57.5 67.4999 57.5C68.163 57.5 68.7989 57.2366 69.2677 56.7678C69.7365 56.2989 69.9999 55.663 69.9999 55V50H74.9999C75.663 50 76.2989 49.7366 76.7677 49.2678C77.2365 48.7989 77.4999 48.163 77.4999 47.5C77.4999 46.837 77.2365 46.2011 76.7677 45.7322C76.2989 45.2634 75.663 45 74.9999 45ZM68.5343 25L24.9999 68.5344C24.0623 69.4713 22.7911 69.9977 21.4656 69.9977C20.14 69.9977 18.8688 69.4713 17.9312 68.5344L11.4624 62.0719C10.998 61.6076 10.6296 61.0563 10.3783 60.4496C10.1269 59.8429 9.99756 59.1926 9.99756 58.5359C9.99756 57.8792 10.1269 57.229 10.3783 56.6223C10.6296 56.0156 10.998 55.4643 11.4624 55L54.9999 11.4656C55.4642 11.0012 56.0155 10.6328 56.6222 10.3815C57.2289 10.1301 57.8792 10.0008 58.5359 10.0008C59.1926 10.0008 59.8428 10.1301 60.4495 10.3815C61.0562 10.6328 61.6075 11.0012 62.0718 11.4656L68.5343 17.9281C68.9987 18.3924 69.3671 18.9437 69.6185 19.5504C69.8698 20.1571 69.9992 20.8074 69.9992 21.4641C69.9992 22.1208 69.8698 22.771 69.6185 23.3777C69.3671 23.9844 68.9987 24.5357 68.5343 25ZM51.4624 35L44.9999 28.5344L14.9999 58.5344L21.4624 65L51.4624 35ZM64.9999 21.4656L58.5343 15L48.5343 25L54.9999 31.4656L64.9999 21.4656Z" fill="black"/>
<path d="M15.7322 18.2322C15.2634 18.7011 15 19.337 15 20C15 20.663 15.2634 21.2989 15.7322 21.7678C16.2011 22.2366 16.837 22.5 17.5 22.5H22.5V27.5C22.5 28.163 22.7634 28.7989 23.2322 29.2678C23.7011 29.7366 24.337 30 25 30C25.663 30 26.2989 29.7366 26.7678 29.2678C27.2366 28.7989 27.5 28.163 27.5 27.5V22.5H32.5C33.163 22.5 33.7989 22.2366 34.2678 21.7678C34.7366 21.2989 35 20.663 35 20C35 19.337 34.7366 18.7011 34.2678 18.2322C33.7989 17.7634 33.163 17.5 32.5 17.5H27.5V12.5C27.5 11.837 27.2366 11.2011 26.7678 10.7322C26.2989 10.2634 25.663 10 25 10C24.337 10 23.7011 10.2634 23.2322 10.7322C22.7634 11.2011 22.5 11.837 22.5 12.5V17.5H17.5C16.837 17.5 16.2011 17.7634 15.7322 18.2322Z" fill="#9747FF"/>
<path d="M55 60H57.5C58.163 60 58.7989 60.2634 59.2678 60.7322C59.7366 61.2011 60 61.837 60 62.5C60 63.163 59.7366 63.7989 59.2678 64.2678C58.7989 64.7366 58.163 65 57.5 65H55V67.5C55 68.163 54.7366 68.7989 54.2678 69.2678C53.7989 69.7366 53.163 70 52.5 70C51.837 70 51.2011 69.7366 50.7322 69.2678C50.2634 68.7989 50 68.163 50 67.5V65H47.5C46.837 65 46.2011 64.7366 45.7322 64.2678C45.2634 63.7989 45 63.163 45 62.5C45 61.837 45.2634 61.2011 45.7322 60.7322C46.2011 60.2634 46.837 60 47.5 60H50V57.5C50 56.837 50.2634 56.2011 50.7322 55.7322C51.2011 55.2634 51.837 55 52.5 55C53.163 55 53.7989 55.2634 54.2678 55.7322C54.7366 56.2011 55 56.837 55 57.5V60Z" fill="#9747FF"/>
<path d="M70 45H75C75.663 45 76.2989 45.2634 76.7678 45.7322C77.2366 46.2011 77.5 46.837 77.5 47.5C77.5 48.163 77.2366 48.7989 76.7678 49.2678C76.2989 49.7366 75.663 50 75 50H70V55C70 55.663 69.7366 56.2989 69.2678 56.7678C68.7989 57.2366 68.163 57.5 67.5 57.5C66.837 57.5 66.2011 57.2366 65.7322 56.7678C65.2634 56.2989 65 55.663 65 55V50H60C59.337 50 58.7011 49.7366 58.2322 49.2678C57.7634 48.7989 57.5 48.163 57.5 47.5C57.5 46.837 57.7634 46.2011 58.2322 45.7322C58.7011 45.2634 59.337 45 60 45H65V40C65 39.337 65.2634 38.7011 65.7322 38.2322C66.2011 37.7634 66.837 37.5 67.5 37.5C68.163 37.5 68.7989 37.7634 69.2678 38.2322C69.7366 38.7011 70 39.337 70 40V45Z" fill="#9747FF"/>
<path d="M45 28.5344L51.4625 35L21.4625 65L15 58.5344L45 28.5344Z" fill="#504F4F"/>
<path d="M58.5344 15L65 21.4656L55 31.4656L48.5344 25L58.5344 15Z" fill="white"/>
</svg>
