<svg width="846" height="440" viewBox="0 0 846 440" fill="none" xmlns="http://www.w3.org/2000/svg">
<rect width="846" height="440" fill="#D9D9D9"/>
<path d="M454.25 182.5H391.75C390.092 182.5 388.503 183.158 387.331 184.331C386.158 185.503 385.5 187.092 385.5 188.75V251.25C385.5 252.908 386.158 254.497 387.331 255.669C388.503 256.842 390.092 257.5 391.75 257.5H454.25C455.908 257.5 457.497 256.842 458.669 255.669C459.842 254.497 460.5 252.908 460.5 251.25V188.75C460.5 187.092 459.842 185.503 458.669 184.331C457.497 183.158 455.908 182.5 454.25 182.5ZM391.75 188.75H454.25V218.977L444.605 209.328C443.433 208.157 441.844 207.499 440.188 207.499C438.531 207.499 436.942 208.157 435.77 209.328L393.848 251.25H391.75V188.75ZM454.25 251.25H402.688L440.188 213.75L454.25 227.812V251.25ZM410.5 216.875C412.354 216.875 414.167 216.325 415.708 215.295C417.25 214.265 418.452 212.801 419.161 211.088C419.871 209.375 420.057 207.49 419.695 205.671C419.333 203.852 418.44 202.182 417.129 200.871C415.818 199.56 414.148 198.667 412.329 198.305C410.51 197.943 408.625 198.129 406.912 198.839C405.199 199.548 403.735 200.75 402.705 202.292C401.675 203.833 401.125 205.646 401.125 207.5C401.125 209.986 402.113 212.371 403.871 214.129C405.629 215.887 408.014 216.875 410.5 216.875ZM410.5 204.375C411.118 204.375 411.722 204.558 412.236 204.902C412.75 205.245 413.151 205.733 413.387 206.304C413.624 206.875 413.686 207.503 413.565 208.11C413.444 208.716 413.147 209.273 412.71 209.71C412.273 210.147 411.716 210.444 411.11 210.565C410.503 210.686 409.875 210.624 409.304 210.387C408.733 210.151 408.245 209.75 407.902 209.236C407.558 208.722 407.375 208.118 407.375 207.5C407.375 206.671 407.704 205.876 408.29 205.29C408.876 204.704 409.671 204.375 410.5 204.375Z" fill="black"/>
</svg>
