<svg width="413" height="440" viewBox="0 0 413 440" fill="none" xmlns="http://www.w3.org/2000/svg">
<rect width="413" height="440" fill="#D9D9D9"/>
<path d="M237.25 182.5H174.75C173.092 182.5 171.503 183.158 170.331 184.331C169.158 185.503 168.5 187.092 168.5 188.75V251.25C168.5 252.908 169.158 254.497 170.331 255.669C171.503 256.842 173.092 257.5 174.75 257.5H237.25C238.908 257.5 240.497 256.842 241.669 255.669C242.842 254.497 243.5 252.908 243.5 251.25V188.75C243.5 187.092 242.842 185.503 241.669 184.331C240.497 183.158 238.908 182.5 237.25 182.5ZM174.75 188.75H237.25V218.977L227.605 209.328C226.433 208.157 224.844 207.499 223.188 207.499C221.531 207.499 219.942 208.157 218.77 209.328L176.848 251.25H174.75V188.75ZM237.25 251.25H185.688L223.188 213.75L237.25 227.812V251.25ZM193.5 216.875C195.354 216.875 197.167 216.325 198.708 215.295C200.25 214.265 201.452 212.801 202.161 211.088C202.871 209.375 203.057 207.49 202.695 205.671C202.333 203.852 201.44 202.182 200.129 200.871C198.818 199.56 197.148 198.667 195.329 198.305C193.51 197.943 191.625 198.129 189.912 198.839C188.199 199.548 186.735 200.75 185.705 202.292C184.675 203.833 184.125 205.646 184.125 207.5C184.125 209.986 185.113 212.371 186.871 214.129C188.629 215.887 191.014 216.875 193.5 216.875ZM193.5 204.375C194.118 204.375 194.722 204.558 195.236 204.902C195.75 205.245 196.151 205.733 196.387 206.304C196.624 206.875 196.686 207.503 196.565 208.11C196.444 208.716 196.147 209.273 195.71 209.71C195.273 210.147 194.716 210.444 194.11 210.565C193.503 210.686 192.875 210.624 192.304 210.387C191.733 210.151 191.245 209.75 190.902 209.236C190.558 208.722 190.375 208.118 190.375 207.5C190.375 206.671 190.704 205.876 191.29 205.29C191.876 204.704 192.671 204.375 193.5 204.375Z" fill="black"/>
</svg>
