<svg width="80" height="80" viewBox="0 0 80 80" fill="none" xmlns="http://www.w3.org/2000/svg">
<path d="M40 7.5C33.5721 7.5 27.2886 9.40609 21.944 12.9772C16.5994 16.5484 12.4338 21.6242 9.97393 27.5628C7.51408 33.5014 6.87047 40.0361 8.12449 46.3404C9.37851 52.6448 12.4738 58.4358 17.019 62.981C21.5643 67.5262 27.3552 70.6215 33.6596 71.8755C39.964 73.1295 46.4986 72.4859 52.4372 70.0261C58.3758 67.5662 63.4516 63.4006 67.0228 58.056C70.5939 52.7114 72.5 46.4279 72.5 40C72.4909 31.3833 69.0639 23.122 62.9709 17.0291C56.878 10.9361 48.6168 7.5091 40 7.5ZM40 67.5C34.561 67.5 29.2442 65.8872 24.7218 62.8654C20.1995 59.8437 16.6747 55.5488 14.5933 50.5238C12.5119 45.4988 11.9673 39.9695 13.0284 34.635C14.0895 29.3005 16.7086 24.4005 20.5546 20.5546C24.4005 16.7086 29.3006 14.0895 34.635 13.0284C39.9695 11.9673 45.4988 12.5119 50.5238 14.5933C55.5488 16.6747 59.8437 20.1995 62.8654 24.7218C65.8872 29.2442 67.5 34.561 67.5 40C67.4917 47.2909 64.5918 54.2808 59.4363 59.4363C54.2809 64.5918 47.2909 67.4917 40 67.5ZM25 33.75C25 33.0083 25.2199 32.2833 25.632 31.6666C26.0441 31.0499 26.6297 30.5693 27.315 30.2855C28.0002 30.0016 28.7542 29.9274 29.4816 30.0721C30.209 30.2167 30.8772 30.5739 31.4017 31.0983C31.9261 31.6228 32.2833 32.291 32.428 33.0184C32.5727 33.7458 32.4984 34.4998 32.2146 35.1851C31.9307 35.8703 31.4501 36.456 30.8334 36.868C30.2167 37.2801 29.4917 37.5 28.75 37.5C27.7555 37.5 26.8016 37.1049 26.0984 36.4017C25.3951 35.6984 25 34.7446 25 33.75ZM55 33.75C55 34.4917 54.7801 35.2167 54.368 35.8334C53.956 36.4501 53.3703 36.9307 52.6851 37.2145C51.9999 37.4984 51.2459 37.5726 50.5184 37.4279C49.791 37.2833 49.1228 36.9261 48.5984 36.4017C48.0739 35.8772 47.7168 35.209 47.5721 34.4816C47.4274 33.7542 47.5016 33.0002 47.7855 32.3149C48.0693 31.6297 48.5499 31.044 49.1666 30.632C49.7833 30.2199 50.5083 30 51.25 30C52.2446 30 53.1984 30.3951 53.9017 31.0983C54.6049 31.8016 55 32.7554 55 33.75ZM54.6656 48.75C51.45 54.3094 46.1031 57.5 40 57.5C33.8969 57.5 28.5531 54.3125 25.3375 48.75C25.1566 48.4655 25.0352 48.1473 24.9804 47.8146C24.9257 47.4819 24.9389 47.1415 25.0191 46.814C25.0993 46.4865 25.2449 46.1787 25.4472 45.9089C25.6495 45.6392 25.9043 45.4131 26.1962 45.2444C26.4881 45.0757 26.8111 44.9677 27.1458 44.9271C27.4806 44.8864 27.82 44.9139 28.1439 45.0078C28.4677 45.1018 28.7691 45.2602 29.0301 45.4737C29.2911 45.6872 29.5062 45.9512 29.6625 46.25C31.9969 50.2844 35.6656 52.5 40 52.5C44.3344 52.5 48.0031 50.2812 50.3344 46.25C50.6659 45.6756 51.212 45.2565 51.8526 45.0848C52.4931 44.9131 53.1757 45.0029 53.75 45.3344C54.3244 45.6659 54.7435 46.212 54.9152 46.8526C55.0869 47.4931 54.9972 48.1756 54.6656 48.75Z" fill="black"/>
</svg>
